<svg width="32" height="32" viewBox="0 0 32 32" fill="none" xmlns="http://www.w3.org/2000/svg">
<path d="M14.586 4.08934L11.7093 3.44C9.36267 2.91 7.03133 4.38267 6.50133 6.72933L5.846 9.63C7.734 6.632 10.9033 4.524 14.586 4.08934ZM4.08934 17.4113L3.44 20.288C2.91 22.6347 4.38267 24.966 6.72933 25.496L9.63 26.1513C6.632 24.2627 4.524 21.094 4.08934 17.4113ZM25.268 6.50133L22.3673 5.846C25.3653 7.734 27.4733 10.9033 27.908 14.5853L28.5573 11.7087C29.0873 9.36333 27.6147 7.03133 25.268 6.50133ZM17.4113 27.908L20.288 28.5573C22.6347 29.0873 24.966 27.6147 25.496 25.268L26.1513 22.3673C24.2633 25.3653 21.094 27.4733 17.4113 27.908Z" fill="white"/>
<path d="M15.9987 5.33203C10.1074 5.33203 5.33203 10.1074 5.33203 15.9987C5.33203 21.89 10.1074 26.6654 15.9987 26.6654C21.89 26.6654 26.6654 21.89 26.6654 15.9987C26.6654 10.1074 21.89 5.33203 15.9987 5.33203ZM13.332 8.66536C14.8047 8.66536 15.9987 9.85936 15.9987 11.332C15.9987 12.8047 14.8047 13.9987 13.332 13.9987C11.8594 13.9987 10.6654 12.8047 10.6654 11.332C10.6654 9.85936 11.8594 8.66536 13.332 8.66536ZM11.332 21.332C9.85936 21.332 8.66536 20.138 8.66536 18.6654C8.66536 17.1927 9.85936 15.9987 11.332 15.9987C12.8047 15.9987 13.9987 17.1927 13.9987 18.6654C13.9987 20.138 12.8047 21.332 11.332 21.332ZM14.6654 15.9987C14.6654 15.262 15.262 14.6654 15.9987 14.6654C16.7354 14.6654 17.332 15.262 17.332 15.9987C17.332 16.7354 16.7354 17.332 15.9987 17.332C15.262 17.332 14.6654 16.7354 14.6654 15.9987ZM18.6654 23.332C17.1927 23.332 15.9987 22.138 15.9987 20.6654C15.9987 19.1927 17.1927 17.9987 18.6654 17.9987C20.138 17.9987 21.332 19.1927 21.332 20.6654C21.332 22.138 20.138 23.332 18.6654 23.332ZM20.6654 15.9987C19.1927 15.9987 17.9987 14.8047 17.9987 13.332C17.9987 11.8594 19.1927 10.6654 20.6654 10.6654C22.138 10.6654 23.332 11.8594 23.332 13.332C23.332 14.8047 22.138 15.9987 20.6654 15.9987Z" fill="white"/>
</svg>
