<svg width="32" height="32" viewBox="0 0 32 32" fill="none" xmlns="http://www.w3.org/2000/svg">
<g clip-path="url(#clip0_1705_17328)">
<path d="M9.84068 11.8926H5.21536C5.01008 11.8926 4.84375 12.059 4.84375 12.2642V27.1234C4.84375 27.3286 5.01008 27.495 5.21536 27.495H9.84068C10.046 27.495 10.2123 27.3286 10.2123 27.1234V12.2642C10.2123 12.059 10.046 11.8926 9.84068 11.8926Z" fill="white"/>
<path d="M7.53065 4.50586C5.84769 4.50586 4.47852 5.87354 4.47852 7.55465C4.47852 9.23649 5.84769 10.6047 7.53065 10.6047C9.21227 10.6047 10.5803 9.23642 10.5803 7.55465C10.5804 5.87354 9.21227 4.50586 7.53065 4.50586Z" fill="white"/>
<path d="M21.6078 11.5234C19.7501 11.5234 18.3768 12.322 17.5439 13.2294V12.2644C17.5439 12.0592 17.3775 11.8927 17.1723 11.8927H12.7427C12.5374 11.8927 12.3711 12.0592 12.3711 12.2644V27.1235C12.3711 27.3288 12.5374 27.4951 12.7427 27.4951H17.3579C17.5632 27.4951 17.7295 27.3288 17.7295 27.1235V19.7717C17.7295 17.2943 18.4024 16.3291 20.1294 16.3291C22.0102 16.3291 22.1597 17.8764 22.1597 19.8991V27.1236C22.1597 27.3289 22.326 27.4952 22.5313 27.4952H27.1482C27.3535 27.4952 27.5198 27.3289 27.5198 27.1236V18.9731C27.5198 15.2893 26.8174 11.5234 21.6078 11.5234Z" fill="white"/>
</g>
<defs>
<clipPath id="clip0_1705_17328">
<rect width="23.04" height="23.04" fill="white" transform="translate(4.47852 4.48047)"/>
</clipPath>
</defs>
</svg>
