<svg width="28" height="28" viewBox="0 0 28 28" fill="none" xmlns="http://www.w3.org/2000/svg">
<path fill-rule="evenodd" clip-rule="evenodd" d="M20.9987 21C21.6175 21 22.211 20.7542 22.6486 20.3166C23.0862 19.879 23.332 19.2855 23.332 18.6667L23.332 15.1667C23.332 14.5478 23.0862 13.9543 22.6486 13.5168C22.211 13.0792 21.6175 12.8333 20.9987 12.8333L17.4987 12.8333C17.4987 11.9051 17.8674 11.0148 18.5238 10.3585C19.1802 9.70208 20.0704 9.33333 20.9987 9.33333L22.1654 9.33333C22.4748 9.33333 22.7715 9.21042 22.9903 8.99163C23.2091 8.77283 23.332 8.47609 23.332 8.16667C23.332 7.85725 23.2091 7.5605 22.9903 7.34171C22.7715 7.12292 22.4748 7 22.1654 7L20.9987 7C19.4516 7 17.9679 7.61458 16.8739 8.70855C15.7799 9.80251 15.1654 11.2862 15.1654 12.8333L15.1654 18.6667C15.1654 19.2855 15.4112 19.879 15.8488 20.3166C16.2864 20.7542 16.8799 21 17.4987 21L20.9987 21ZM10.4987 21C11.1175 21 11.711 20.7542 12.1486 20.3166C12.5862 19.879 12.832 19.2855 12.832 18.6667L12.832 15.1667C12.832 14.5478 12.5862 13.9543 12.1486 13.5168C11.711 13.0792 11.1175 12.8333 10.4987 12.8333L6.9987 12.8333C6.9987 11.9051 7.36745 11.0148 8.02382 10.3585C8.6802 9.70208 9.57044 9.33334 10.4987 9.33334L11.6654 9.33333C11.9748 9.33333 12.2715 9.21042 12.4903 8.99163C12.7091 8.77283 12.832 8.47609 12.832 8.16667C12.832 7.85725 12.7091 7.5605 12.4903 7.34171C12.2715 7.12292 11.9748 7 11.6654 7L10.4987 7C8.9516 7 7.46787 7.61458 6.37391 8.70855C5.27995 9.80251 4.66536 11.2862 4.66537 12.8333L4.66537 18.6667C4.66537 19.2855 4.9112 19.879 5.34878 20.3166C5.78637 20.7542 6.37986 21 6.9987 21L10.4987 21Z" fill="white"/>
</svg>
