<svg width="28" height="28" viewBox="0 0 28 28" fill="none" xmlns="http://www.w3.org/2000/svg">
<path fill-rule="evenodd" clip-rule="evenodd" d="M7.0013 7C6.38246 7 5.78897 7.24583 5.35139 7.68342C4.9138 8.121 4.66797 8.71449 4.66797 9.33333V12.8333C4.66797 13.4522 4.9138 14.0457 5.35139 14.4832C5.78897 14.9208 6.38246 15.1667 7.0013 15.1667H10.5013C10.5013 16.0949 10.1326 16.9852 9.47618 17.6415C8.8198 18.2979 7.92956 18.6667 7.0013 18.6667H5.83464C5.52522 18.6667 5.22847 18.7896 5.00968 19.0084C4.79089 19.2272 4.66797 19.5239 4.66797 19.8333C4.66797 20.1428 4.79089 20.4395 5.00968 20.6583C5.22847 20.8771 5.52522 21 5.83464 21H7.0013C8.5484 21 10.0321 20.3854 11.1261 19.2915C12.2201 18.1975 12.8346 16.7138 12.8346 15.1667V9.33333C12.8346 8.71449 12.5888 8.121 12.1512 7.68342C11.7136 7.24583 11.1201 7 10.5013 7H7.0013ZM17.5013 7C16.8825 7 16.289 7.24583 15.8514 7.68342C15.4138 8.121 15.168 8.71449 15.168 9.33333V12.8333C15.168 13.4522 15.4138 14.0457 15.8514 14.4832C16.289 14.9208 16.8825 15.1667 17.5013 15.1667H21.0013C21.0013 16.0949 20.6326 16.9852 19.9762 17.6415C19.3198 18.2979 18.4296 18.6667 17.5013 18.6667H16.3346C16.0252 18.6667 15.7285 18.7896 15.5097 19.0084C15.2909 19.2272 15.168 19.5239 15.168 19.8333C15.168 20.1428 15.2909 20.4395 15.5097 20.6583C15.7285 20.8771 16.0252 21 16.3346 21H17.5013C19.0484 21 20.5321 20.3854 21.6261 19.2915C22.7201 18.1975 23.3346 16.7138 23.3346 15.1667V9.33333C23.3346 8.71449 23.0888 8.121 22.6512 7.68342C22.2136 7.24583 21.6201 7 21.0013 7H17.5013Z" fill="white"/>
</svg>
